<svg width="41" height="40" viewBox="0 0 41 40" fill="none" xmlns="http://www.w3.org/2000/svg">
<path d="M26.3333 14.1667L14.6667 25.8333M16.3333 15.8333H16.35M24.6667 24.1667H24.6833M35.5 20C35.5 28.2843 28.7843 35 20.5 35C12.2157 35 5.5 28.2843 5.5 20C5.5 11.7157 12.2157 5 20.5 5C28.7843 5 35.5 11.7157 35.5 20ZM17.1667 15.8333C17.1667 16.2936 16.7936 16.6667 16.3333 16.6667C15.8731 16.6667 15.5 16.2936 15.5 15.8333C15.5 15.3731 15.8731 15 16.3333 15C16.7936 15 17.1667 15.3731 17.1667 15.8333ZM25.5 24.1667C25.5 24.6269 25.1269 25 24.6667 25C24.2064 25 23.8333 24.6269 23.8333 24.1667C23.8333 23.7064 24.2064 23.3333 24.6667 23.3333C25.1269 23.3333 25.5 23.7064 25.5 24.1667Z" stroke="white" stroke-width="1.5" stroke-linecap="round" stroke-linejoin="round"/>
</svg>
