<svg width="158" height="27" viewBox="0 0 158 27" fill="none" xmlns="http://www.w3.org/2000/svg">
<path d="M5.945 15.4815C5.99833 15.4815 6.045 15.5032 6.085 15.5465L6.47 15.9615C6.17667 16.3015 5.82 16.5665 5.4 16.7565C4.98333 16.9465 4.47833 17.0415 3.885 17.0415C3.37167 17.0415 2.905 16.9532 2.485 16.7765C2.065 16.5965 1.70667 16.3465 1.41 16.0265C1.11333 15.7032 0.883333 15.3165 0.72 14.8665C0.556667 14.4165 0.475 13.9215 0.475 13.3815C0.475 12.8415 0.56 12.3465 0.73 11.8965C0.9 11.4465 1.13833 11.0599 1.445 10.7365C1.755 10.4132 2.125 10.1632 2.555 9.98655C2.985 9.80655 3.46 9.71655 3.98 9.71655C4.49 9.71655 4.94 9.79821 5.33 9.96155C5.72 10.1249 6.06333 10.3465 6.36 10.6265L6.04 11.0715C6.02 11.1049 5.99333 11.1332 5.96 11.1565C5.93 11.1765 5.88833 11.1865 5.835 11.1865C5.775 11.1865 5.70167 11.1549 5.615 11.0915C5.52833 11.0249 5.415 10.9515 5.275 10.8715C5.135 10.7915 4.96 10.7199 4.75 10.6565C4.54 10.5899 4.28167 10.5565 3.975 10.5565C3.605 10.5565 3.26667 10.6215 2.96 10.7515C2.65333 10.8782 2.38833 11.0632 2.165 11.3065C1.945 11.5499 1.77333 11.8465 1.65 12.1965C1.52667 12.5465 1.465 12.9415 1.465 13.3815C1.465 13.8282 1.52833 14.2265 1.655 14.5765C1.785 14.9265 1.96 15.2232 2.18 15.4665C2.40333 15.7065 2.665 15.8899 2.965 16.0165C3.26833 16.1432 3.595 16.2065 3.945 16.2065C4.15833 16.2065 4.35 16.1949 4.52 16.1715C4.69333 16.1449 4.85167 16.1049 4.995 16.0515C5.14167 15.9982 5.27667 15.9315 5.4 15.8515C5.52667 15.7682 5.65167 15.6699 5.775 15.5565C5.83167 15.5065 5.88833 15.4815 5.945 15.4815ZM8.20039 12.9115C8.36039 12.5649 8.55706 12.2949 8.79039 12.1015C9.02372 11.9049 9.30872 11.8065 9.64539 11.8065C9.75206 11.8065 9.85372 11.8182 9.95039 11.8415C10.0504 11.8649 10.1387 11.9015 10.2154 11.9515L10.1504 12.6165C10.1304 12.6999 10.0804 12.7415 10.0004 12.7415C9.95372 12.7415 9.88539 12.7315 9.79539 12.7115C9.70539 12.6915 9.60372 12.6815 9.49039 12.6815C9.33039 12.6815 9.18706 12.7049 9.06039 12.7515C8.93706 12.7982 8.82539 12.8682 8.72539 12.9615C8.62872 13.0515 8.54039 13.1649 8.46039 13.3015C8.38372 13.4349 8.31372 13.5882 8.25039 13.7615V16.9615H7.35539V11.8965H7.86539C7.96206 11.8965 8.02872 11.9149 8.06539 11.9515C8.10206 11.9882 8.12706 12.0515 8.14039 12.1415L8.20039 12.9115ZM14.1829 13.8765C14.1829 13.6699 14.1529 13.4815 14.0929 13.3115C14.0362 13.1382 13.9512 12.9899 13.8379 12.8665C13.7279 12.7399 13.5929 12.6432 13.4329 12.5765C13.2729 12.5065 13.0912 12.4715 12.8879 12.4715C12.4612 12.4715 12.1229 12.5965 11.8729 12.8465C11.6262 13.0932 11.4729 13.4365 11.4129 13.8765H14.1829ZM14.9029 16.2515C14.7929 16.3849 14.6612 16.5015 14.5079 16.6015C14.3546 16.6982 14.1896 16.7782 14.0129 16.8415C13.8396 16.9049 13.6596 16.9515 13.4729 16.9815C13.2862 17.0149 13.1012 17.0315 12.9179 17.0315C12.5679 17.0315 12.2446 16.9732 11.9479 16.8565C11.6546 16.7365 11.3996 16.5632 11.1829 16.3365C10.9696 16.1065 10.8029 15.8232 10.6829 15.4865C10.5629 15.1499 10.5029 14.7632 10.5029 14.3265C10.5029 13.9732 10.5562 13.6432 10.6629 13.3365C10.7729 13.0299 10.9296 12.7649 11.1329 12.5415C11.3362 12.3149 11.5846 12.1382 11.8779 12.0115C12.1712 11.8815 12.5012 11.8165 12.8679 11.8165C13.1712 11.8165 13.4512 11.8682 13.7079 11.9715C13.9679 12.0715 14.1912 12.2182 14.3779 12.4115C14.5679 12.6015 14.7162 12.8382 14.8229 13.1215C14.9296 13.4015 14.9829 13.7215 14.9829 14.0815C14.9829 14.2215 14.9679 14.3149 14.9379 14.3615C14.9079 14.4082 14.8512 14.4315 14.7679 14.4315H11.3829C11.3929 14.7515 11.4362 15.0299 11.5129 15.2665C11.5929 15.5032 11.7029 15.7015 11.8429 15.8615C11.9829 16.0182 12.1496 16.1365 12.3429 16.2165C12.5362 16.2932 12.7529 16.3315 12.9929 16.3315C13.2162 16.3315 13.4079 16.3065 13.5679 16.2565C13.7312 16.2032 13.8712 16.1465 13.9879 16.0865C14.1046 16.0265 14.2012 15.9715 14.2779 15.9215C14.3579 15.8682 14.4262 15.8415 14.4829 15.8415C14.5562 15.8415 14.6129 15.8699 14.6529 15.9265L14.9029 16.2515ZM18.8211 14.6815C18.4111 14.6949 18.0611 14.7282 17.7711 14.7815C17.4844 14.8315 17.2494 14.8982 17.0661 14.9815C16.8861 15.0649 16.7544 15.1632 16.6711 15.2765C16.5911 15.3899 16.5511 15.5165 16.5511 15.6565C16.5511 15.7899 16.5728 15.9049 16.6161 16.0015C16.6594 16.0982 16.7178 16.1782 16.7911 16.2415C16.8678 16.3015 16.9561 16.3465 17.0561 16.3765C17.1594 16.4032 17.2694 16.4165 17.3861 16.4165C17.5428 16.4165 17.6861 16.4015 17.8161 16.3715C17.9461 16.3382 18.0678 16.2915 18.1811 16.2315C18.2978 16.1715 18.4078 16.0999 18.5111 16.0165C18.6178 15.9332 18.7211 15.8382 18.8211 15.7315V14.6815ZM15.9461 12.6115C16.2261 12.3415 16.5278 12.1399 16.8511 12.0065C17.1744 11.8732 17.5328 11.8065 17.9261 11.8065C18.2094 11.8065 18.4611 11.8532 18.6811 11.9465C18.9011 12.0399 19.0861 12.1699 19.2361 12.3365C19.3861 12.5032 19.4994 12.7049 19.5761 12.9415C19.6528 13.1782 19.6911 13.4382 19.6911 13.7215V16.9615H19.2961C19.2094 16.9615 19.1428 16.9482 19.0961 16.9215C19.0494 16.8915 19.0128 16.8349 18.9861 16.7515L18.8861 16.2715C18.7528 16.3949 18.6228 16.5049 18.4961 16.6015C18.3694 16.6949 18.2361 16.7749 18.0961 16.8415C17.9561 16.9049 17.8061 16.9532 17.6461 16.9865C17.4894 17.0232 17.3144 17.0415 17.1211 17.0415C16.9244 17.0415 16.7394 17.0149 16.5661 16.9615C16.3928 16.9049 16.2411 16.8215 16.1111 16.7115C15.9844 16.6015 15.8828 16.4632 15.8061 16.2965C15.7328 16.1265 15.6961 15.9265 15.6961 15.6965C15.6961 15.4965 15.7511 15.3049 15.8611 15.1215C15.9711 14.9349 16.1494 14.7699 16.3961 14.6265C16.6428 14.4832 16.9644 14.3665 17.3611 14.2765C17.7578 14.1832 18.2444 14.1299 18.8211 14.1165V13.7215C18.8211 13.3282 18.7361 13.0315 18.5661 12.8315C18.3961 12.6282 18.1478 12.5265 17.8211 12.5265C17.6011 12.5265 17.4161 12.5549 17.2661 12.6115C17.1194 12.6649 16.9911 12.7265 16.8811 12.7965C16.7744 12.8632 16.6811 12.9249 16.6011 12.9815C16.5244 13.0349 16.4478 13.0615 16.3711 13.0615C16.3111 13.0615 16.2594 13.0465 16.2161 13.0165C16.1728 12.9832 16.1361 12.9432 16.1061 12.8965L15.9461 12.6115ZM22.5334 17.0415C22.1334 17.0415 21.8251 16.9299 21.6084 16.7065C21.3951 16.4832 21.2884 16.1615 21.2884 15.7415V12.6415H20.6784C20.6251 12.6415 20.5801 12.6265 20.5434 12.5965C20.5068 12.5632 20.4884 12.5132 20.4884 12.4465V12.0915L21.3184 11.9865L21.5234 10.4215C21.5334 10.3715 21.5551 10.3315 21.5884 10.3015C21.6251 10.2682 21.6718 10.2515 21.7284 10.2515H22.1784V11.9965H23.6434V12.6415H22.1784V15.6815C22.1784 15.8949 22.2301 16.0532 22.3334 16.1565C22.4368 16.2599 22.5701 16.3115 22.7334 16.3115C22.8268 16.3115 22.9068 16.2999 22.9734 16.2765C23.0434 16.2499 23.1034 16.2215 23.1534 16.1915C23.2034 16.1615 23.2451 16.1349 23.2784 16.1115C23.3151 16.0849 23.3468 16.0715 23.3734 16.0715C23.4201 16.0715 23.4618 16.0999 23.4984 16.1565L23.7584 16.5815C23.6051 16.7249 23.4201 16.8382 23.2034 16.9215C22.9868 17.0015 22.7634 17.0415 22.5334 17.0415ZM27.9231 13.8765C27.9231 13.6699 27.8931 13.4815 27.8331 13.3115C27.7765 13.1382 27.6915 12.9899 27.5781 12.8665C27.4681 12.7399 27.3331 12.6432 27.1731 12.5765C27.0131 12.5065 26.8315 12.4715 26.6281 12.4715C26.2015 12.4715 25.8631 12.5965 25.6131 12.8465C25.3665 13.0932 25.2131 13.4365 25.1531 13.8765H27.9231ZM28.6431 16.2515C28.5331 16.3849 28.4015 16.5015 28.2481 16.6015C28.0948 16.6982 27.9298 16.7782 27.7531 16.8415C27.5798 16.9049 27.3998 16.9515 27.2131 16.9815C27.0265 17.0149 26.8415 17.0315 26.6581 17.0315C26.3081 17.0315 25.9848 16.9732 25.6881 16.8565C25.3948 16.7365 25.1398 16.5632 24.9231 16.3365C24.7098 16.1065 24.5431 15.8232 24.4231 15.4865C24.3031 15.1499 24.2431 14.7632 24.2431 14.3265C24.2431 13.9732 24.2965 13.6432 24.4031 13.3365C24.5131 13.0299 24.6698 12.7649 24.8731 12.5415C25.0765 12.3149 25.3248 12.1382 25.6181 12.0115C25.9115 11.8815 26.2415 11.8165 26.6081 11.8165C26.9115 11.8165 27.1915 11.8682 27.4481 11.9715C27.7081 12.0715 27.9315 12.2182 28.1181 12.4115C28.3081 12.6015 28.4565 12.8382 28.5631 13.1215C28.6698 13.4015 28.7231 13.7215 28.7231 14.0815C28.7231 14.2215 28.7081 14.3149 28.6781 14.3615C28.6481 14.4082 28.5915 14.4315 28.5081 14.4315H25.1231C25.1331 14.7515 25.1765 15.0299 25.2531 15.2665C25.3331 15.5032 25.4431 15.7015 25.5831 15.8615C25.7231 16.0182 25.8898 16.1365 26.0831 16.2165C26.2765 16.2932 26.4931 16.3315 26.7331 16.3315C26.9565 16.3315 27.1481 16.3065 27.3081 16.2565C27.4715 16.2032 27.6115 16.1465 27.7281 16.0865C27.8448 16.0265 27.9415 15.9715 28.0181 15.9215C28.0981 15.8682 28.1665 15.8415 28.2231 15.8415C28.2965 15.8415 28.3531 15.8699 28.3931 15.9265L28.6431 16.2515ZM33.1163 13.1015C32.9497 12.8782 32.7697 12.7232 32.5763 12.6365C32.383 12.5465 32.1663 12.5015 31.9263 12.5015C31.4563 12.5015 31.0947 12.6699 30.8413 13.0065C30.588 13.3432 30.4613 13.8232 30.4613 14.4465C30.4613 14.7765 30.4897 15.0599 30.5463 15.2965C30.603 15.5299 30.6863 15.7232 30.7963 15.8765C30.9063 16.0265 31.0413 16.1365 31.2013 16.2065C31.3613 16.2765 31.543 16.3115 31.7463 16.3115C32.0397 16.3115 32.2947 16.2449 32.5113 16.1115C32.7313 15.9782 32.933 15.7899 33.1163 15.5465V13.1015ZM34.0063 9.59655V16.9615H33.4763C33.3497 16.9615 33.2697 16.8999 33.2363 16.7765L33.1563 16.1615C32.9397 16.4215 32.693 16.6315 32.4163 16.7915C32.1397 16.9515 31.8197 17.0315 31.4563 17.0315C31.1663 17.0315 30.903 16.9765 30.6663 16.8665C30.4297 16.7532 30.228 16.5882 30.0613 16.3715C29.8947 16.1549 29.7663 15.8849 29.6763 15.5615C29.5863 15.2382 29.5413 14.8665 29.5413 14.4465C29.5413 14.0732 29.5913 13.7265 29.6913 13.4065C29.7913 13.0832 29.9347 12.8032 30.1213 12.5665C30.308 12.3299 30.5363 12.1449 30.8063 12.0115C31.0797 11.8749 31.3863 11.8065 31.7263 11.8065C32.0363 11.8065 32.3013 11.8599 32.5213 11.9665C32.7447 12.0699 32.943 12.2149 33.1163 12.4015V9.59655H34.0063ZM38.8656 15.7415C39.029 15.9615 39.2073 16.1165 39.4006 16.2065C39.5973 16.2965 39.8123 16.3415 40.0456 16.3415C40.5223 16.3415 40.8873 16.1732 41.1406 15.8365C41.394 15.4999 41.5206 14.9982 41.5206 14.3315C41.5206 13.7115 41.4073 13.2565 41.1806 12.9665C40.9573 12.6732 40.6373 12.5265 40.2206 12.5265C39.9306 12.5265 39.6773 12.5932 39.4606 12.7265C39.2473 12.8599 39.049 13.0482 38.8656 13.2915V15.7415ZM38.8656 12.6265C39.079 12.3799 39.319 12.1832 39.5856 12.0365C39.8556 11.8899 40.1656 11.8165 40.5156 11.8165C40.8123 11.8165 41.079 11.8732 41.3156 11.9865C41.5556 12.0999 41.759 12.2649 41.9256 12.4815C42.0923 12.6949 42.219 12.9549 42.3056 13.2615C42.3956 13.5682 42.4406 13.9132 42.4406 14.2965C42.4406 14.7065 42.3906 15.0799 42.2906 15.4165C42.1906 15.7532 42.0456 16.0415 41.8556 16.2815C41.669 16.5182 41.4406 16.7032 41.1706 16.8365C40.9006 16.9665 40.5973 17.0315 40.2606 17.0315C39.9273 17.0315 39.6456 16.9699 39.4156 16.8465C39.189 16.7199 38.9906 16.5415 38.8206 16.3115L38.7756 16.7715C38.749 16.8982 38.6723 16.9615 38.5456 16.9615H37.9706V9.59655H38.8656V12.6265ZM47.8094 11.8965L44.9844 18.4565C44.9544 18.5232 44.916 18.5765 44.8694 18.6165C44.826 18.6565 44.7577 18.6765 44.6644 18.6765H44.0044L44.9294 16.6665L42.8394 11.8965H43.6094C43.686 11.8965 43.746 11.9165 43.7894 11.9565C43.836 11.9932 43.8677 12.0349 43.8844 12.0815L45.2394 15.2715C45.2927 15.4115 45.3377 15.5582 45.3744 15.7115C45.421 15.5549 45.471 15.4065 45.5244 15.2665L46.8394 12.0815C46.8594 12.0282 46.8927 11.9849 46.9394 11.9515C46.9894 11.9149 47.0444 11.8965 47.1044 11.8965H47.8094Z" fill="#858588"/>
<g clip-path="url(#clip0_19263_31409)">
<path d="M66.1349 20.1796C65.9577 20.1796 65.7823 20.1448 65.6187 20.0773C65.455 20.0097 65.3063 19.9108 65.1811 19.786C65.0559 19.6612 64.9565 19.513 64.8888 19.35C64.821 19.187 64.7862 19.0122 64.7862 18.8358V15.4768C64.7862 14.9423 64.5731 14.4298 64.1937 14.0518C63.8143 13.6739 63.2998 13.4616 62.7632 13.4616H60.0659C59.5294 13.4616 59.0149 13.6739 58.6355 14.0518C58.2561 14.4298 58.043 14.9423 58.043 15.4768V18.1637C58.043 18.6982 58.2561 19.2107 58.6355 19.5887C59.0149 19.9666 59.5294 20.1789 60.0659 20.1789H63.4376C63.6147 20.1789 63.7902 20.2136 63.9539 20.2811C64.1176 20.3486 64.2664 20.4476 64.3917 20.5724C64.517 20.6972 64.6164 20.8453 64.6842 21.0084C64.752 21.1714 64.7869 21.3462 64.7869 21.5227V24.8824C64.7869 25.4166 64.9999 25.9291 65.3792 26.3068C65.7585 26.6846 66.2728 26.8969 66.8092 26.8969H69.5072C70.0436 26.8969 70.5581 26.6846 70.9375 26.3068C71.3169 25.9289 71.53 25.4164 71.5301 24.882V22.1948C71.5302 21.9302 71.4779 21.6682 71.3763 21.4237C71.2747 21.1792 71.1257 20.9571 70.938 20.77C70.7502 20.5828 70.5272 20.4344 70.2818 20.3331C70.0365 20.2318 69.7734 20.1796 69.5078 20.1796H66.1349ZM82.995 6.74362H79.6224C79.4453 6.74357 79.2699 6.70878 79.1063 6.64122C78.9427 6.57367 78.794 6.47467 78.6688 6.34989C78.5436 6.2251 78.4443 6.07698 78.3766 5.91396C78.3088 5.75095 78.274 5.57624 78.274 5.39982V2.04083C78.274 1.50636 78.0609 0.993793 77.6815 0.615871C77.3022 0.237949 76.7876 0.0256348 76.2511 0.0256348H66.8092C66.2727 0.0256348 65.7581 0.237949 65.3787 0.615871C64.9993 0.993793 64.7862 1.50636 64.7862 2.04083V4.72775C64.7862 4.99239 64.8385 5.25444 64.9402 5.49893C65.0419 5.74342 65.1909 5.96558 65.3787 6.15271C65.7581 6.53063 66.2727 6.74294 66.8092 6.74294H76.9244C77.2822 6.74294 77.6253 6.88452 77.8783 7.13653C78.1312 7.38854 78.2734 7.73034 78.2734 8.08674V24.882C78.2734 25.1466 78.3258 25.4086 78.4275 25.6531C78.5292 25.8975 78.6782 26.1196 78.866 26.3066C79.0539 26.4937 79.2769 26.6421 79.5223 26.7433C79.7677 26.8445 80.0307 26.8966 80.2963 26.8965H82.994C83.5305 26.8965 84.0451 26.6842 84.4244 26.3063C84.8038 25.9284 85.017 25.4158 85.017 24.8814V8.75948C85.0172 8.49483 84.965 8.23274 84.8635 7.98817C84.762 7.7436 84.6131 7.52136 84.4253 7.33415C84.2376 7.14694 84.0146 6.99842 83.7692 6.8971C83.5237 6.79577 83.2607 6.74362 82.995 6.74362ZM100.661 26.7044C98.8845 26.7044 97.5686 26.2406 96.7136 25.3131C95.8578 24.3856 95.4305 23.1236 95.4305 21.5271V14.4076H93.2538V11.9169C93.2539 11.685 93.3464 11.4627 93.5109 11.2987C93.6755 11.1348 93.8987 11.0426 94.1315 11.0426H95.4298V8.39501C95.4298 8.20639 95.4911 8.02284 95.6044 7.87171C95.7177 7.72058 95.877 7.60997 96.0585 7.55636L98.6876 6.78063C98.8185 6.74198 98.9568 6.73431 99.0912 6.75824C99.2257 6.78217 99.3527 6.83704 99.4622 6.91848C99.5716 6.99991 99.6604 7.10567 99.7216 7.22734C99.7828 7.349 99.8146 7.48321 99.8146 7.61929V11.0432H103.713L103.515 13.6016C103.498 13.8213 103.399 14.0265 103.236 14.1762C103.074 14.3259 102.861 14.4092 102.64 14.4093H99.8146V21.2366C99.8146 22.078 100.01 22.6555 100.4 22.9681C100.789 23.2811 101.396 23.4376 102.219 23.4376C102.824 23.4376 103.453 23.3303 104.103 23.1139V26.1235C103.626 26.318 103.106 26.4634 102.544 26.5603C101.981 26.6563 101.353 26.7044 100.661 26.7044ZM108.934 25.4198L105.337 11.8304C105.302 11.701 105.298 11.5655 105.325 11.4343C105.352 11.3031 105.408 11.1798 105.49 11.0737C105.572 10.9677 105.677 10.8818 105.798 10.8227C105.918 10.7635 106.051 10.7327 106.185 10.7326H109.431L111.771 20.6995L114.337 12.7067V10.7323H117.025C117.215 10.7323 117.399 10.7936 117.551 10.9071C117.703 11.0206 117.814 11.18 117.868 11.3616L120.606 20.6992L122.725 11.4131C122.769 11.2197 122.878 11.047 123.033 10.9234C123.189 10.7997 123.382 10.7323 123.581 10.7323H127.233L123.205 26.0717H119.813C119.628 26.0717 119.448 26.0135 119.298 25.9054C119.148 25.7974 119.036 25.645 118.979 25.47L116.221 17.1083L113.2 26.0717H109.783C109.589 26.0717 109.401 26.0078 109.247 25.8899C109.094 25.7721 108.984 25.6065 108.934 25.4198ZM136.523 26.3948C133.643 26.3948 131.531 25.6988 130.189 24.3076C128.845 22.916 128.174 20.9479 128.174 18.4016C128.174 15.8561 128.851 13.8877 130.204 12.4961C131.557 11.1048 133.664 10.4089 136.523 10.4089C139.402 10.4089 141.52 11.1048 142.873 12.4961C144.226 13.8877 144.903 15.8561 144.903 18.4016C144.903 20.9472 144.232 22.916 142.889 24.3076C141.547 25.6988 139.425 26.3948 136.523 26.3948ZM136.523 22.6733C137.93 22.6733 138.938 22.3556 139.544 21.7189C140.15 21.0828 140.453 19.977 140.453 18.4023C140.453 16.8273 140.15 15.7221 139.544 15.0857C138.938 14.4497 137.93 14.1313 136.523 14.1313C135.137 14.1313 134.141 14.4497 133.535 15.0857C132.928 15.7221 132.625 16.8283 132.625 18.4023C132.625 19.9773 132.928 21.0832 133.535 21.7189C134.14 22.3556 135.137 22.6733 136.523 22.6733ZM157.5 10.0515L157.499 10.0498C157.614 9.77044 157.678 9.46554 157.678 9.14583C157.678 8.54746 157.453 7.97067 157.049 7.52844C156.644 7.08621 156.088 6.81041 155.49 6.75506L155.475 6.75472C155.406 6.74832 155.336 6.74484 155.266 6.74429L155.258 6.74463L155.249 6.74429H145.115C144.898 6.74429 144.691 6.82981 144.538 6.98204C144.386 7.13427 144.3 7.34073 144.3 7.55602V9.05597C144.3 9.27123 144.386 9.47764 144.538 9.62985C144.691 9.78206 144.898 9.86761 145.115 9.8677H152.965C152.996 9.96261 153.033 10.0545 153.074 10.1443L146.29 26.0818H150.75L157.485 10.0895C157.487 10.0843 157.489 10.0791 157.491 10.0737L157.5 10.0515Z" fill="#B8B8BC"/>
</g>
<defs>
<clipPath id="clip0_19263_31409">
<rect width="100" height="26.9231" fill="white" transform="translate(58)"/>
</clipPath>
</defs>
</svg>
