<svg width="40" height="40" viewBox="0 0 40 40" fill="none" xmlns="http://www.w3.org/2000/svg">
<path d="M5 15.0002H35M11.6667 25.0002H15M10.3333 31.6668H29.6667C31.5335 31.6668 32.4669 31.6668 33.18 31.3035C33.8072 30.9839 34.3171 30.474 34.6367 29.8468C35 29.1338 35 28.2003 35 26.3335V13.6668C35 11.8 35 10.8666 34.6367 10.1535C34.3171 9.52632 33.8072 9.01639 33.18 8.69681C32.4669 8.3335 31.5335 8.3335 29.6667 8.3335H10.3333C8.46649 8.3335 7.53307 8.3335 6.82003 8.69681C6.19282 9.01639 5.68289 9.52632 5.36331 10.1535C5 10.8666 5 11.8 5 13.6668V26.3335C5 28.2003 5 29.1338 5.36331 29.8468C5.68289 30.474 6.19282 30.9839 6.82003 31.3035C7.53307 31.6668 8.46649 31.6668 10.3333 31.6668Z" stroke="white" stroke-width="1.5" stroke-linecap="round" stroke-linejoin="round"/>
</svg>
