<svg width="20" height="20" viewBox="0 0 20 20" fill="none" xmlns="http://www.w3.org/2000/svg">
<path fill-rule="evenodd" clip-rule="evenodd" d="M1.66669 4.99996C1.66669 4.1159 2.01788 3.26806 2.643 2.64294C3.26812 2.01782 4.11597 1.66663 5.00002 1.66663H15C15.8841 1.66663 16.7319 2.01782 17.357 2.64294C17.9822 3.26806 18.3334 4.1159 18.3334 4.99996V15C18.3334 15.884 17.9822 16.7319 17.357 17.357C16.7319 17.9821 15.8841 18.3333 15 18.3333H5.00002C4.11597 18.3333 3.26812 17.9821 2.643 17.357C2.01788 16.7319 1.66669 15.884 1.66669 15V4.99996ZM5.00002 3.33329C4.55799 3.33329 4.13407 3.50889 3.82151 3.82145C3.50895 4.13401 3.33335 4.55793 3.33335 4.99996V15C3.33335 15.442 3.50895 15.8659 3.82151 16.1785C4.13407 16.491 4.55799 16.6666 5.00002 16.6666H10V10.8333H9.16669C8.94567 10.8333 8.73371 10.7455 8.57743 10.5892C8.42115 10.4329 8.33335 10.221 8.33335 9.99996C8.33335 9.77895 8.42115 9.56698 8.57743 9.4107C8.73371 9.25442 8.94567 9.16663 9.16669 9.16663H10V7.91663C10 7.14308 10.3073 6.40121 10.8543 5.85423C11.4013 5.30725 12.1431 4.99996 12.9167 4.99996H13.4167C13.6377 4.99996 13.8497 5.08776 14.0059 5.24404C14.1622 5.40032 14.25 5.61228 14.25 5.83329C14.25 6.05431 14.1622 6.26627 14.0059 6.42255C13.8497 6.57883 13.6377 6.66663 13.4167 6.66663H12.9167C12.7525 6.66663 12.59 6.69896 12.4383 6.76178C12.2867 6.82459 12.1489 6.91667 12.0328 7.03274C11.9167 7.14882 11.8247 7.28661 11.7618 7.43827C11.699 7.58993 11.6667 7.75247 11.6667 7.91663V9.16663H13.4167C13.6377 9.16663 13.8497 9.25442 14.0059 9.4107C14.1622 9.56698 14.25 9.77895 14.25 9.99996C14.25 10.221 14.1622 10.4329 14.0059 10.5892C13.8497 10.7455 13.6377 10.8333 13.4167 10.8333H11.6667V16.6666H15C15.442 16.6666 15.866 16.491 16.1785 16.1785C16.4911 15.8659 16.6667 15.442 16.6667 15V4.99996C16.6667 4.55793 16.4911 4.13401 16.1785 3.82145C15.866 3.50889 15.442 3.33329 15 3.33329H5.00002Z" fill="white"/>
</svg>
