<svg width="30" height="30" viewBox="0 0 30 30" fill="none" xmlns="http://www.w3.org/2000/svg">
<rect width="30" height="30" rx="15" fill="#858588"/>
<path d="M15 6.66699C17.2629 6.66699 17.5482 6.6765 18.4414 6.71289C19.3311 6.75262 19.9366 6.89453 20.4658 7.09961C21.0117 7.31465 21.4782 7.59934 21.9414 8.0625C22.4046 8.52566 22.6926 8.98892 22.9043 9.53809C23.1094 10.0706 23.2513 10.6761 23.291 11.5625C23.3307 12.4524 23.3408 12.7341 23.3408 15C23.3408 17.266 23.3307 17.5477 23.291 18.4375C23.2513 19.3271 23.1093 19.9327 22.9043 20.4619C22.6893 21.0077 22.4044 21.4744 21.9414 21.9375C21.4783 22.4006 21.0149 22.6887 20.4658 22.9004C19.9333 23.1055 19.3278 23.2484 18.4414 23.2881C17.5515 23.3278 17.2698 23.3369 15.0039 23.3369C12.7379 23.3369 12.4562 23.3278 11.5664 23.2881C10.6766 23.2484 10.0712 23.1054 9.54199 22.9004C8.99612 22.6854 8.52957 22.4007 8.06641 21.9375C7.60324 21.4743 7.31525 21.0111 7.10352 20.4619C6.89847 19.9294 6.75551 19.3239 6.71582 18.4375C6.67613 17.5477 6.66699 17.2627 6.66699 15C6.66699 12.7375 6.67613 12.4529 6.71582 11.5664C6.75551 10.6766 6.89846 10.0713 7.10352 9.54199C7.31856 8.99612 7.60324 8.52957 8.06641 8.06641C8.52956 7.60326 8.99282 7.31524 9.54199 7.10352C10.0712 6.8985 10.6763 6.75554 11.5625 6.71582C12.4524 6.67612 12.7374 6.66699 15 6.66699ZM15 10.7227C12.6381 10.7229 10.7197 12.6386 10.7197 15.0039C10.7199 17.3691 12.6349 19.2839 15 19.2842C17.3653 19.2842 19.2811 17.3692 19.2812 15.0039C19.2812 12.6385 17.3655 10.7227 15 10.7227ZM15 12.2217C16.535 12.2217 17.7791 13.4651 17.7793 15C17.7793 16.5351 16.5351 17.7793 15 17.7793C13.4652 17.779 12.2217 16.5349 12.2217 15C12.2218 13.4652 13.4652 12.2219 15 12.2217ZM19.4502 9.55176C18.8984 9.55176 18.4512 9.99899 18.4512 10.5508C18.4512 11.1025 18.8984 11.5498 19.4502 11.5498C20.0019 11.5497 20.4492 11.1025 20.4492 10.5508C20.4492 9.99904 20.0019 9.55184 19.4502 9.55176Z" fill="white"/>
</svg>
