<svg width="20" height="20" viewBox="0 0 20 20" fill="none" xmlns="http://www.w3.org/2000/svg">
<path fill-rule="evenodd" clip-rule="evenodd" d="M1.66669 4.99996C1.66669 4.1159 2.01788 3.26806 2.643 2.64294C3.26812 2.01782 4.11597 1.66663 5.00002 1.66663H15C15.8841 1.66663 16.7319 2.01782 17.357 2.64294C17.9822 3.26806 18.3334 4.1159 18.3334 4.99996V15C18.3334 15.884 17.9822 16.7319 17.357 17.357C16.7319 17.9821 15.8841 18.3333 15 18.3333H5.00002C4.11597 18.3333 3.26812 17.9821 2.643 17.357C2.01788 16.7319 1.66669 15.884 1.66669 15V4.99996ZM5.00002 3.33329C4.55799 3.33329 4.13407 3.50889 3.82151 3.82145C3.50895 4.13401 3.33335 4.55793 3.33335 4.99996V15C3.33335 15.442 3.50895 15.8659 3.82151 16.1785C4.13407 16.491 4.55799 16.6666 5.00002 16.6666H15C15.442 16.6666 15.866 16.491 16.1785 16.1785C16.4911 15.8659 16.6667 15.442 16.6667 15V4.99996C16.6667 4.55793 16.4911 4.13401 16.1785 3.82145C15.866 3.50889 15.442 3.33329 15 3.33329H5.00002ZM10 7.49996C9.33698 7.49996 8.70109 7.76335 8.23225 8.23219C7.76341 8.70103 7.50002 9.33692 7.50002 9.99996C7.50002 10.663 7.76341 11.2989 8.23225 11.7677C8.70109 12.2366 9.33698 12.5 10 12.5C10.6631 12.5 11.2989 12.2366 11.7678 11.7677C12.2366 11.2989 12.5 10.663 12.5 9.99996C12.5 9.33692 12.2366 8.70103 11.7678 8.23219C11.2989 7.76335 10.6631 7.49996 10 7.49996ZM5.83335 9.99996C5.83335 8.89489 6.27234 7.83508 7.05374 7.05368C7.83514 6.27228 8.89495 5.83329 10 5.83329C11.1051 5.83329 12.1649 6.27228 12.9463 7.05368C13.7277 7.83508 14.1667 8.89489 14.1667 9.99996C14.1667 11.105 13.7277 12.1648 12.9463 12.9462C12.1649 13.7276 11.1051 14.1666 10 14.1666C8.89495 14.1666 7.83514 13.7276 7.05374 12.9462C6.27234 12.1648 5.83335 11.105 5.83335 9.99996ZM14.5834 6.66663C14.9149 6.66663 15.2328 6.53493 15.4672 6.30051C15.7017 6.06609 15.8334 5.74815 15.8334 5.41663C15.8334 5.08511 15.7017 4.76716 15.4672 4.53274C15.2328 4.29832 14.9149 4.16663 14.5834 4.16663C14.2518 4.16663 13.9339 4.29832 13.6995 4.53274C13.4651 4.76716 13.3334 5.08511 13.3334 5.41663C13.3334 5.74815 13.4651 6.06609 13.6995 6.30051C13.9339 6.53493 14.2518 6.66663 14.5834 6.66663Z" fill="white"/>
</svg>
