<svg width="126" height="30" viewBox="0 0 126 30" fill="none" xmlns="http://www.w3.org/2000/svg">
<g clip-path="url(#clip0_20124_8240)">
<path d="M28.3926 25.0751V13.4287H31.222V22.624H35.7289V25.0748L28.3926 25.0751ZM45.0522 21.0777V21.4069C45.0522 21.4069 45.0466 21.6205 45.0359 21.7195H39.0979C39.1197 21.9498 39.1883 22.1582 39.3037 22.3448C39.419 22.5313 39.567 22.6926 39.7476 22.8302C39.9285 22.9674 40.1314 23.0742 40.3564 23.1506C40.5814 23.2276 40.8176 23.2666 41.0554 23.2659C41.483 23.2659 41.8453 23.1865 42.1412 23.0274C42.4256 22.8785 42.673 22.6677 42.8651 22.4104L44.7403 23.5948C44.3565 24.154 43.8496 24.5845 43.2188 24.886C42.5881 25.1871 41.8557 25.3384 41.0228 25.3384C40.4084 25.3384 39.8273 25.242 39.2792 25.0507C38.7308 24.8586 38.2513 24.5793 37.8397 24.2115C37.4288 23.8444 37.1051 23.392 36.8692 22.8546C36.6334 22.3173 36.5158 21.7032 36.5158 21.012C36.5158 20.3434 36.6308 19.7371 36.8611 19.1946C37.0913 18.6521 37.4039 18.1912 37.7989 17.8129C38.1934 17.4343 38.6592 17.141 39.1973 16.9326C39.7342 16.7246 40.3157 16.62 40.9405 16.62C41.5434 16.62 42.0975 16.7216 42.6018 16.9244C43.1061 17.1273 43.5392 17.4206 43.9015 17.8044C44.2634 18.1882 44.5453 18.6543 44.7485 19.2028C44.9509 19.7508 45.0522 20.3764 45.0522 21.0777ZM42.5684 20.0412C42.5684 19.6136 42.4342 19.2462 42.1653 18.9391C41.8965 18.6324 41.4934 18.4786 40.9564 18.4786C40.6932 18.4786 40.4521 18.5197 40.2326 18.602C40.0131 18.6844 39.8217 18.7967 39.6567 18.9391C39.4941 19.0796 39.3602 19.25 39.2621 19.4412C39.1651 19.6272 39.1091 19.8318 39.0979 20.0412H42.5684ZM49.3615 18.8902V22.0277C49.3615 22.413 49.4357 22.7015 49.584 22.8947C49.7316 23.0875 49.9975 23.1832 50.3816 23.1832C50.5129 23.1832 50.6527 23.1728 50.801 23.1502C50.949 23.1283 51.0721 23.0957 51.1711 23.0515L51.2041 25.0254C51.0176 25.0911 50.7818 25.1485 50.497 25.1982C50.2114 25.2476 49.9266 25.272 49.6415 25.272C49.093 25.272 48.6321 25.2031 48.2594 25.0659C47.8864 24.9286 47.5875 24.7306 47.3631 24.4718C47.1381 24.2137 46.9764 23.9059 46.8777 23.5484C46.7787 23.1913 46.7298 22.7927 46.7298 22.3529V18.8902H45.4137V16.8833H46.7131V14.7284H49.3615V16.8833H51.2861V18.8902H49.3615ZM60.0208 19.301C59.792 19.0865 59.5312 18.909 59.2477 18.7748C58.9555 18.6332 58.6349 18.56 58.3102 18.5609C58.0577 18.5609 57.8248 18.6106 57.6112 18.7088C57.3972 18.8078 57.2905 18.978 57.2905 19.2187C57.2905 19.449 57.408 19.6133 57.6438 19.7123C57.8797 19.8113 58.2609 19.9207 58.7871 20.0412C59.0941 20.1072 59.4041 20.2007 59.7167 20.3212C60.0294 20.4417 60.3115 20.6008 60.5637 20.7981C60.8149 20.9943 61.0223 21.2408 61.1726 21.5219C61.3257 21.8071 61.4029 22.1471 61.4029 22.5417C61.4029 23.0575 61.2987 23.4928 61.0903 23.8492C60.8819 24.2055 60.6104 24.4933 60.2759 24.7128C59.9415 24.9324 59.5658 25.0911 59.1494 25.1897C58.7399 25.2877 58.3204 25.3373 57.8993 25.3377C57.23 25.3377 56.5751 25.2309 55.9332 25.0169C55.2921 24.8033 54.7574 24.4877 54.3298 24.0709L55.8431 22.4753C56.0838 22.7386 56.3801 22.9581 56.7313 23.1331C57.0821 23.3089 57.4551 23.3964 57.85 23.3964C58.0757 23.3949 58.2981 23.3413 58.4997 23.2399C58.7137 23.1361 58.8205 22.9522 58.8205 22.6892C58.8205 22.4367 58.6892 22.2506 58.4259 22.1297C58.1626 22.0092 57.7518 21.8831 57.1922 21.7511C56.9012 21.6837 56.6153 21.5958 56.3367 21.4882C56.0591 21.3832 55.8007 21.2331 55.5721 21.0439C55.3436 20.8532 55.1561 20.6182 55.021 20.3531C54.8786 20.0794 54.8074 19.7501 54.8074 19.3663C54.8074 18.8727 54.9113 18.4533 55.12 18.1077C55.3222 17.7688 55.5976 17.4794 55.9262 17.2608C56.2551 17.0412 56.6196 16.8799 57.0198 16.7754C57.4199 16.6708 57.8174 16.6189 58.2127 16.6189C58.8264 16.6189 59.4268 16.7153 60.0134 16.9066C60.6001 17.0987 61.0966 17.3865 61.5023 17.7703L60.0208 19.301ZM66.5677 25.0751V13.4287H74.3973V15.7975H69.2818V18.0017H74.1177V20.2552H69.2818V22.6733H74.6936V25.0751H66.5677ZM81.8111 25.0751V20.6008C81.8111 20.3705 81.7915 20.1513 81.7537 19.9429C81.7206 19.7502 81.6566 19.5642 81.5642 19.3919C81.4776 19.2343 81.3497 19.1034 81.1941 19.0133C81.035 18.9206 80.8348 18.8735 80.5937 18.8735C80.3527 18.8735 80.1413 18.9206 79.9604 19.0133C79.7798 19.1067 79.6285 19.2358 79.5079 19.4C79.3874 19.5643 79.297 19.7538 79.2369 19.9674C79.1761 20.1843 79.1456 20.4085 79.1464 20.6338V25.0751H76.4323V16.8833H79.0478V18.0184H79.0808C79.1885 17.8309 79.3183 17.6571 79.4675 17.5007C79.6304 17.3274 79.819 17.1803 80.0267 17.0646C80.2484 16.9406 80.4829 16.8413 80.7261 16.7683C80.9875 16.6903 81.2591 16.6515 81.5319 16.653C82.0803 16.653 82.5461 16.752 82.9303 16.9493C83.3144 17.1466 83.6237 17.4017 83.8599 17.7139C84.0999 18.0355 84.2733 18.4017 84.3698 18.7912C84.4736 19.1972 84.5259 19.6029 84.5259 20.0086V25.0748L81.8111 25.0751ZM91.4666 19.5313C91.3127 19.334 91.1043 19.1753 90.8414 19.0544C90.589 18.9363 90.3139 18.8746 90.0352 18.8735C89.7497 18.8735 89.4924 18.931 89.2621 19.0463C89.0318 19.1616 88.8345 19.3155 88.6699 19.5068C88.5023 19.7042 88.3713 19.9298 88.2831 20.1732C88.1889 20.4315 88.1416 20.7045 88.1433 20.9794C88.1433 21.2645 88.1871 21.533 88.2749 21.7852C88.3625 22.0377 88.4911 22.2598 88.6613 22.4516C88.8305 22.6432 89.0379 22.7973 89.2702 22.904C89.5061 23.0137 89.772 23.0682 90.0679 23.0682C90.3415 23.0682 90.6134 23.0163 90.8818 22.9121C91.1503 22.8079 91.3672 22.657 91.5315 22.4597L93.0285 24.2856C92.6885 24.6146 92.2494 24.8723 91.7125 25.0588C91.162 25.2473 90.5837 25.3418 90.0019 25.3384C89.3548 25.3384 88.7507 25.2394 88.1897 25.0421C87.629 24.8448 87.1417 24.5567 86.7282 24.1785C86.3144 23.8002 85.9892 23.3426 85.7519 22.8053C85.5145 22.268 85.3962 21.6595 85.3962 20.9794C85.3962 20.3104 85.5145 19.7071 85.7519 19.1698C85.9892 18.6328 86.3144 18.1745 86.7282 17.7962C87.1417 17.4176 87.6293 17.1273 88.1897 16.9244C88.7507 16.7216 89.3492 16.62 89.9856 16.62C90.2815 16.62 90.5748 16.6474 90.8655 16.7027C91.1559 16.7572 91.4355 16.8317 91.7043 16.9248C91.9732 17.0179 92.2198 17.1332 92.4445 17.2704C92.6692 17.4076 92.8643 17.5582 93.0285 17.7228L91.4666 19.5313ZM99.3722 19.1038C99.2513 19.0708 99.1334 19.0492 99.0184 19.0381C98.9035 19.027 98.7907 19.0214 98.6814 19.0214C98.3194 19.0214 98.015 19.0874 97.7684 19.2183C97.5218 19.3496 97.3245 19.508 97.1762 19.6941C97.0282 19.8799 96.9211 20.0824 96.8554 20.3011C96.7898 20.5199 96.7568 20.7109 96.7568 20.8752V25.0748H94.059V16.8929H96.6581V18.0773H96.6911C96.8937 17.664 97.1998 17.3101 97.5796 17.0501C97.9631 16.785 98.4073 16.6526 98.912 16.6526C99.0214 16.6526 99.1286 16.6585 99.2328 16.6693C99.3366 16.6801 99.4219 16.6967 99.4879 16.7186L99.3722 19.1038ZM105.71 26.3089C105.56 26.7055 105.376 27.0881 105.159 27.4521C104.965 27.7747 104.721 28.0637 104.435 28.3076C104.155 28.5434 103.826 28.7211 103.448 28.8419C103.07 28.9625 102.622 29.0229 102.107 29.0229C101.846 29.0223 101.585 29.0057 101.326 28.9732C101.09 28.9465 100.857 28.9026 100.627 28.8419L100.923 26.5721C101.055 26.6155 101.2 26.6515 101.359 26.6789C101.518 26.706 101.664 26.7197 101.795 26.7197C102.212 26.7197 102.513 26.6237 102.7 26.432C102.886 26.2399 103.045 25.9688 103.177 25.618L103.44 24.9439L100.019 16.8836H103.012L104.838 22.1475H104.887L106.516 16.8836H109.378L105.71 26.3089ZM119.198 20.9464C119.198 21.5167 119.11 22.0652 118.935 22.5914C118.759 23.1179 118.504 23.5811 118.17 23.9812C117.833 24.3837 117.415 24.7116 116.944 24.9439C116.462 25.1845 115.914 25.3058 115.299 25.3058C114.795 25.3058 114.318 25.2045 113.868 25.0017C113.418 24.7989 113.068 24.5219 112.815 24.1711H112.783V29.0237H110.085V16.8833H112.651V17.8867H112.7C112.953 17.5578 113.301 17.27 113.745 17.0231C114.189 16.7765 114.712 16.653 115.316 16.653C115.908 16.653 116.445 16.7683 116.928 16.9986C117.41 17.2289 117.818 17.5415 118.153 17.936C118.488 18.3306 118.745 18.7889 118.926 19.3096C119.108 19.836 119.2 20.3894 119.198 20.9464ZM116.582 20.9464C116.582 20.6831 116.542 20.4257 116.459 20.1732C116.382 19.9301 116.259 19.704 116.097 19.5068C115.938 19.3151 115.738 19.159 115.497 19.0381C115.256 18.9172 114.976 18.8572 114.658 18.8572C114.351 18.8572 114.076 18.9176 113.835 19.0381C113.6 19.1541 113.39 19.3163 113.218 19.515C113.047 19.7141 112.914 19.9425 112.824 20.1892C112.638 20.6878 112.638 21.2369 112.824 21.7355C112.913 21.9822 113.047 22.2106 113.218 22.4096C113.39 22.6085 113.6 22.7708 113.835 22.8869C114.076 23.0074 114.351 23.0675 114.658 23.0675C114.976 23.0675 115.255 23.0074 115.497 22.8869C115.738 22.7664 115.938 22.6069 116.097 22.4096C116.256 22.2124 116.377 21.9847 116.459 21.727C116.541 21.4747 116.582 21.2114 116.582 20.9464ZM123.508 18.8902V22.0277C123.508 22.413 123.582 22.7015 123.73 22.8947C123.878 23.0875 124.144 23.1832 124.528 23.1832C124.659 23.1832 124.799 23.1728 124.947 23.1502C125.095 23.1283 125.218 23.0957 125.317 23.0515L125.35 25.0254C125.164 25.0911 124.928 25.1485 124.643 25.1982C124.358 25.2476 124.073 25.272 123.788 25.272C123.239 25.272 122.778 25.2031 122.406 25.0659C122.032 24.9286 121.734 24.7306 121.509 24.4718C121.284 24.2137 121.122 23.9059 121.024 23.5484C120.925 23.1913 120.876 22.7927 120.876 22.3529V18.8902H119.56V16.8833H120.859V14.7284H123.508V16.8833H125.432V18.8902H123.508ZM53.7528 13.2054C52.9433 13.2054 52.3096 13.7887 52.3096 14.5337C52.3096 15.3184 52.8432 15.8453 53.6378 15.8453C53.7057 15.8453 53.7699 15.839 53.8303 15.8268C53.7031 16.4075 53.1435 16.8243 52.6147 16.9077L52.5072 16.9248V18.1771L52.6466 18.1637C53.2992 18.0975 53.9111 17.8161 54.3862 17.3639C54.9914 16.7806 55.3114 15.9384 55.3114 14.9283C55.3114 13.93 54.6558 13.2054 53.7528 13.2054Z" fill="#858588"/>
<path d="M17.2188 13.4643H14.2374V11.9336C14.2367 11.3457 14.0028 10.7821 13.5871 10.3664C13.1714 9.95077 12.6077 9.717 12.0199 9.71641C11.432 9.7171 10.8685 9.95091 10.4529 10.3666C10.0372 10.7822 9.80339 11.3457 9.80271 11.9336V13.4643H6.82129V11.9336C6.82129 9.0671 9.1534 6.73462 12.0202 6.73462C14.8871 6.73462 17.2192 9.06673 17.2192 11.9336V13.4643H17.2188Z" fill="#858588"/>
<path d="M18.4215 13.4644H5.61881C5.35547 13.4651 5.10315 13.5701 4.91694 13.7563C4.73074 13.9425 4.62578 14.1948 4.625 14.4582V23.929C4.62578 24.1923 4.73074 24.4446 4.91694 24.6309C5.10315 24.8171 5.35547 24.922 5.61881 24.9228H18.4215C18.6848 24.922 18.9371 24.8171 19.1233 24.6309C19.3095 24.4446 19.4145 24.1923 19.4153 23.929V14.4582C19.4145 14.1948 19.3095 13.9425 19.1233 13.7563C18.9371 13.5701 18.6848 13.4651 18.4215 13.4644ZM12.6689 19.6827V20.9661C12.6632 21.1343 12.5924 21.2938 12.4714 21.4107C12.3504 21.5277 12.1886 21.5931 12.0203 21.5931C11.852 21.5931 11.6903 21.5277 11.5693 21.4107C11.4483 21.2938 11.3774 21.1343 11.3718 20.9661V19.6831C11.1701 19.569 11.0021 19.4037 10.8847 19.2039C10.7673 19.0041 10.7047 18.7769 10.7032 18.5451C10.7017 18.3134 10.7614 18.0854 10.8761 17.8841C10.9909 17.6828 11.1568 17.5154 11.357 17.3987C11.5572 17.282 11.7846 17.2202 12.0164 17.2195C12.2481 17.2188 12.4759 17.2792 12.6768 17.3947C12.8777 17.5102 13.0445 17.6767 13.1606 17.8772C13.2766 18.0778 13.3376 18.3055 13.3375 18.5372C13.3374 18.7702 13.2755 18.9991 13.158 19.2003C13.0406 19.4016 12.8718 19.568 12.6689 19.6827Z" fill="#858588"/>
<path d="M4.32058 12.0522H1.23125C0.990692 12.0522 0.759984 11.9567 0.589883 11.7866C0.419781 11.6165 0.324219 11.3858 0.324219 11.1452C0.324219 10.9046 0.419781 10.6739 0.589883 10.5038C0.759984 10.3337 0.990692 10.2382 1.23125 10.2382H4.32058C4.56114 10.2382 4.79185 10.3337 4.96195 10.5038C5.13205 10.6739 5.22761 10.9046 5.22761 11.1452C5.22761 11.3858 5.13205 11.6165 4.96195 11.7866C4.79185 11.9567 4.56114 12.0522 4.32058 12.0522ZM6.49657 7.19259C6.28654 7.19283 6.083 7.11979 5.92105 6.98605L3.47733 4.97655C3.2915 4.82372 3.17399 4.60333 3.15066 4.36386C3.12733 4.12439 3.20008 3.88545 3.35292 3.69963C3.50575 3.5138 3.72614 3.39629 3.96562 3.37296C4.20509 3.34963 4.44402 3.42238 4.62985 3.57521L7.07357 5.5847C7.2181 5.70344 7.32239 5.86396 7.37215 6.04427C7.42191 6.22458 7.41471 6.41587 7.35153 6.59193C7.28835 6.76799 7.17228 6.92021 7.01923 7.02774C6.86618 7.13527 6.68362 7.19285 6.49657 7.19259ZM12.0196 5.05665C11.7791 5.05665 11.5483 4.96109 11.3782 4.79099C11.2081 4.62089 11.1126 4.39018 11.1126 4.14962V1.03582C11.1126 0.795257 11.2081 0.56455 11.3782 0.394448C11.5483 0.224346 11.7791 0.128784 12.0196 0.128784C12.2602 0.128784 12.4909 0.224346 12.661 0.394448C12.8311 0.56455 12.9266 0.795257 12.9266 1.03582V4.14962C12.9266 4.39018 12.8311 4.62089 12.661 4.79099C12.4909 4.96109 12.2602 5.05665 12.0196 5.05665ZM17.5427 7.19259C17.3557 7.19263 17.1733 7.13493 17.0204 7.02737C16.8675 6.91981 16.7515 6.76764 16.6884 6.59168C16.6252 6.41572 16.618 6.22454 16.6676 6.0443C16.7172 5.86406 16.8213 5.70354 16.9657 5.5847L19.4094 3.57521C19.5958 3.42837 19.8324 3.36043 20.0683 3.38594C20.3043 3.41145 20.5209 3.52839 20.6716 3.7117C20.8224 3.895 20.8953 4.13007 20.8748 4.36651C20.8543 4.60296 20.742 4.82195 20.5619 4.97655L18.1182 6.98605C17.9563 7.11984 17.7527 7.19289 17.5427 7.19259ZM22.8083 12.0522H19.6897C19.4492 12.0522 19.2185 11.9567 19.0483 11.7866C18.8782 11.6165 18.7827 11.3858 18.7827 11.1452C18.7827 10.9046 18.8782 10.6739 19.0483 10.5038C19.2185 10.3337 19.4492 10.2382 19.6897 10.2382H22.8083C23.0489 10.2382 23.2796 10.3337 23.4497 10.5038C23.6198 10.6739 23.7154 10.9046 23.7154 11.1452C23.7154 11.3858 23.6198 11.6165 23.4497 11.7866C23.2796 11.9567 23.0489 12.0522 22.8083 12.0522Z" fill="#858588"/>
</g>
<defs>
<clipPath id="clip0_20124_8240">
<rect width="125.628" height="30" fill="white"/>
</clipPath>
</defs>
</svg>
