<svg width="109" height="16" viewBox="0 0 109 16" fill="none" xmlns="http://www.w3.org/2000/svg">
<path d="M3.03 8.51155C3.30667 8.51155 3.55 8.47488 3.76 8.40155C3.97333 8.32821 4.15167 8.22655 4.295 8.09655C4.44167 7.96321 4.55167 7.80488 4.625 7.62155C4.69833 7.43821 4.735 7.23655 4.735 7.01655C4.735 6.55988 4.59333 6.20321 4.31 5.94655C4.03 5.68988 3.60333 5.56155 3.03 5.56155H1.88V8.51155H3.03ZM3.03 4.79655C3.48333 4.79655 3.87667 4.84988 4.21 4.95655C4.54667 5.05988 4.825 5.20821 5.045 5.40155C5.265 5.59488 5.42833 5.82821 5.535 6.10155C5.645 6.37488 5.7 6.67988 5.7 7.01655C5.7 7.34988 5.64167 7.65488 5.525 7.93155C5.40833 8.20821 5.23667 8.44655 5.01 8.64655C4.78667 8.84655 4.50833 9.00321 4.175 9.11655C3.845 9.22655 3.46333 9.28155 3.03 9.28155H1.88V11.9615H0.915V4.79655H3.03ZM8.58219 6.81655C8.95219 6.81655 9.28552 6.87821 9.58219 7.00155C9.87885 7.12488 10.1322 7.29988 10.3422 7.52655C10.5522 7.75321 10.7122 8.02821 10.8222 8.35155C10.9355 8.67155 10.9922 9.02988 10.9922 9.42655C10.9922 9.82655 10.9355 10.1865 10.8222 10.5065C10.7122 10.8265 10.5522 11.0999 10.3422 11.3265C10.1322 11.5532 9.87885 11.7282 9.58219 11.8515C9.28552 11.9715 8.95219 12.0315 8.58219 12.0315C8.20885 12.0315 7.87219 11.9715 7.57219 11.8515C7.27552 11.7282 7.02219 11.5532 6.81219 11.3265C6.60219 11.0999 6.44052 10.8265 6.32719 10.5065C6.21719 10.1865 6.16219 9.82655 6.16219 9.42655C6.16219 9.02988 6.21719 8.67155 6.32719 8.35155C6.44052 8.02821 6.60219 7.75321 6.81219 7.52655C7.02219 7.29988 7.27552 7.12488 7.57219 7.00155C7.87219 6.87821 8.20885 6.81655 8.58219 6.81655ZM8.58219 11.3365C9.08219 11.3365 9.45552 11.1699 9.70219 10.8365C9.94885 10.4999 10.0722 10.0315 10.0722 9.43155C10.0722 8.82821 9.94885 8.35821 9.70219 8.02155C9.45552 7.68488 9.08219 7.51655 8.58219 7.51655C8.32885 7.51655 8.10719 7.55988 7.91719 7.64655C7.73052 7.73321 7.57385 7.85821 7.44719 8.02155C7.32385 8.18488 7.23052 8.38655 7.16719 8.62655C7.10719 8.86321 7.07719 9.13155 7.07719 9.43155C7.07719 10.0315 7.20052 10.4999 7.44719 10.8365C7.69719 11.1699 8.07552 11.3365 8.58219 11.3365ZM19.0279 6.89655L17.3879 11.9615H16.6829C16.5962 11.9615 16.5362 11.9049 16.5029 11.7915L15.3829 8.35655C15.3562 8.27988 15.3346 8.20321 15.3179 8.12655C15.3012 8.04655 15.2846 7.96821 15.2679 7.89155C15.2512 7.96821 15.2346 8.04655 15.2179 8.12655C15.2012 8.20321 15.1796 8.28155 15.1529 8.36155L14.0129 11.7915C13.9829 11.9049 13.9162 11.9615 13.8129 11.9615H13.1429L11.5029 6.89655H12.2029C12.2729 6.89655 12.3312 6.91488 12.3779 6.95155C12.4279 6.98821 12.4612 7.03155 12.4779 7.08155L13.4479 10.3415C13.5046 10.5815 13.5496 10.8082 13.5829 11.0215C13.6129 10.9115 13.6429 10.7999 13.6729 10.6865C13.7062 10.5732 13.7412 10.4582 13.7779 10.3415L14.8479 7.06155C14.8646 7.01155 14.8929 6.96988 14.9329 6.93655C14.9762 6.90321 15.0279 6.88655 15.0879 6.88655H15.4779C15.5446 6.88655 15.5996 6.90321 15.6429 6.93655C15.6862 6.96988 15.7162 7.01155 15.7329 7.06155L16.7779 10.3415C16.8146 10.4582 16.8479 10.5732 16.8779 10.6865C16.9079 10.7999 16.9362 10.9115 16.9629 11.0215C16.9796 10.9115 16.9996 10.8015 17.0229 10.6915C17.0496 10.5782 17.0779 10.4615 17.1079 10.3415L18.0979 7.08155C18.1146 7.02821 18.1462 6.98488 18.1929 6.95155C18.2396 6.91488 18.2946 6.89655 18.3579 6.89655H19.0279ZM23.2161 8.87655C23.2161 8.66988 23.1861 8.48155 23.1261 8.31155C23.0694 8.13821 22.9844 7.98988 22.8711 7.86655C22.7611 7.73988 22.6261 7.64321 22.4661 7.57655C22.3061 7.50655 22.1244 7.47155 21.9211 7.47155C21.4944 7.47155 21.1561 7.59655 20.9061 7.84655C20.6594 8.09321 20.5061 8.43655 20.4461 8.87655H23.2161ZM23.9361 11.2515C23.8261 11.3849 23.6944 11.5015 23.5411 11.6015C23.3878 11.6982 23.2228 11.7782 23.0461 11.8415C22.8728 11.9049 22.6928 11.9515 22.5061 11.9815C22.3194 12.0149 22.1344 12.0315 21.9511 12.0315C21.6011 12.0315 21.2778 11.9732 20.9811 11.8565C20.6878 11.7365 20.4328 11.5632 20.2161 11.3365C20.0028 11.1065 19.8361 10.8232 19.7161 10.4865C19.5961 10.1499 19.5361 9.76321 19.5361 9.32655C19.5361 8.97321 19.5894 8.64321 19.6961 8.33655C19.8061 8.02988 19.9628 7.76488 20.1661 7.54155C20.3694 7.31488 20.6178 7.13821 20.9111 7.01155C21.2044 6.88155 21.5344 6.81655 21.9011 6.81655C22.2044 6.81655 22.4844 6.86821 22.7411 6.97155C23.0011 7.07155 23.2244 7.21821 23.4111 7.41155C23.6011 7.60155 23.7494 7.83821 23.8561 8.12155C23.9628 8.40155 24.0161 8.72155 24.0161 9.08155C24.0161 9.22155 24.0011 9.31488 23.9711 9.36155C23.9411 9.40821 23.8844 9.43155 23.8011 9.43155H20.4161C20.4261 9.75155 20.4694 10.0299 20.5461 10.2665C20.6261 10.5032 20.7361 10.7015 20.8761 10.8615C21.0161 11.0182 21.1828 11.1365 21.3761 11.2165C21.5694 11.2932 21.7861 11.3315 22.0261 11.3315C22.2494 11.3315 22.4411 11.3065 22.6011 11.2565C22.7644 11.2032 22.9044 11.1465 23.0211 11.0865C23.1378 11.0265 23.2344 10.9715 23.3111 10.9215C23.3911 10.8682 23.4594 10.8415 23.5161 10.8415C23.5894 10.8415 23.6461 10.8699 23.6861 10.9265L23.9361 11.2515ZM25.9543 7.91155C26.1143 7.56488 26.311 7.29488 26.5443 7.10155C26.7776 6.90488 27.0626 6.80655 27.3993 6.80655C27.506 6.80655 27.6076 6.81821 27.7043 6.84155C27.8043 6.86488 27.8926 6.90155 27.9693 6.95155L27.9043 7.61655C27.8843 7.69988 27.8343 7.74155 27.7543 7.74155C27.7076 7.74155 27.6393 7.73155 27.5493 7.71155C27.4593 7.69155 27.3576 7.68155 27.2443 7.68155C27.0843 7.68155 26.941 7.70488 26.8143 7.75155C26.691 7.79821 26.5793 7.86821 26.4793 7.96155C26.3826 8.05155 26.2943 8.16488 26.2143 8.30155C26.1376 8.43488 26.0676 8.58821 26.0043 8.76155V11.9615H25.1093V6.89655H25.6193C25.716 6.89655 25.7826 6.91488 25.8193 6.95155C25.856 6.98821 25.881 7.05155 25.8943 7.14155L25.9543 7.91155ZM31.9368 8.87655C31.9368 8.66988 31.9068 8.48155 31.8468 8.31155C31.7901 8.13821 31.7051 7.98988 31.5918 7.86655C31.4818 7.73988 31.3468 7.64321 31.1868 7.57655C31.0268 7.50655 30.8451 7.47155 30.6418 7.47155C30.2151 7.47155 29.8768 7.59655 29.6268 7.84655C29.3801 8.09321 29.2268 8.43655 29.1668 8.87655H31.9368ZM32.6568 11.2515C32.5468 11.3849 32.4151 11.5015 32.2618 11.6015C32.1085 11.6982 31.9435 11.7782 31.7668 11.8415C31.5935 11.9049 31.4135 11.9515 31.2268 11.9815C31.0401 12.0149 30.8551 12.0315 30.6718 12.0315C30.3218 12.0315 29.9985 11.9732 29.7018 11.8565C29.4085 11.7365 29.1535 11.5632 28.9368 11.3365C28.7235 11.1065 28.5568 10.8232 28.4368 10.4865C28.3168 10.1499 28.2568 9.76321 28.2568 9.32655C28.2568 8.97321 28.3101 8.64321 28.4168 8.33655C28.5268 8.02988 28.6835 7.76488 28.8868 7.54155C29.0901 7.31488 29.3385 7.13821 29.6318 7.01155C29.9251 6.88155 30.2551 6.81655 30.6218 6.81655C30.9251 6.81655 31.2051 6.86821 31.4618 6.97155C31.7218 7.07155 31.9451 7.21821 32.1318 7.41155C32.3218 7.60155 32.4701 7.83821 32.5768 8.12155C32.6835 8.40155 32.7368 8.72155 32.7368 9.08155C32.7368 9.22155 32.7218 9.31488 32.6918 9.36155C32.6618 9.40821 32.6051 9.43155 32.5218 9.43155H29.1368C29.1468 9.75155 29.1901 10.0299 29.2668 10.2665C29.3468 10.5032 29.4568 10.7015 29.5968 10.8615C29.7368 11.0182 29.9035 11.1365 30.0968 11.2165C30.2901 11.2932 30.5068 11.3315 30.7468 11.3315C30.9701 11.3315 31.1618 11.3065 31.3218 11.2565C31.4851 11.2032 31.6251 11.1465 31.7418 11.0865C31.8585 11.0265 31.9551 10.9715 32.0318 10.9215C32.1118 10.8682 32.1801 10.8415 32.2368 10.8415C32.3101 10.8415 32.3668 10.8699 32.4068 10.9265L32.6568 11.2515ZM37.13 8.10155C36.9633 7.87821 36.7833 7.72321 36.59 7.63655C36.3967 7.54655 36.18 7.50155 35.94 7.50155C35.47 7.50155 35.1083 7.66988 34.855 8.00655C34.6017 8.34321 34.475 8.82321 34.475 9.44655C34.475 9.77655 34.5033 10.0599 34.56 10.2965C34.6167 10.5299 34.7 10.7232 34.81 10.8765C34.92 11.0265 35.055 11.1365 35.215 11.2065C35.375 11.2765 35.5567 11.3115 35.76 11.3115C36.0533 11.3115 36.3083 11.2449 36.525 11.1115C36.745 10.9782 36.9467 10.7899 37.13 10.5465V8.10155ZM38.02 4.59655V11.9615H37.49C37.3633 11.9615 37.2833 11.8999 37.25 11.7765L37.17 11.1615C36.9533 11.4215 36.7067 11.6315 36.43 11.7915C36.1533 11.9515 35.8333 12.0315 35.47 12.0315C35.18 12.0315 34.9167 11.9765 34.68 11.8665C34.4433 11.7532 34.2417 11.5882 34.075 11.3715C33.9083 11.1549 33.78 10.8849 33.69 10.5615C33.6 10.2382 33.555 9.86655 33.555 9.44655C33.555 9.07321 33.605 8.72655 33.705 8.40655C33.805 8.08321 33.9483 7.80321 34.135 7.56655C34.3217 7.32988 34.55 7.14488 34.82 7.01155C35.0933 6.87488 35.4 6.80655 35.74 6.80655C36.05 6.80655 36.315 6.85988 36.535 6.96655C36.7583 7.06988 36.9567 7.21488 37.13 7.40155V4.59655H38.02ZM42.8793 10.7415C43.0426 10.9615 43.221 11.1165 43.4143 11.2065C43.611 11.2965 43.826 11.3415 44.0593 11.3415C44.536 11.3415 44.901 11.1732 45.1543 10.8365C45.4076 10.4999 45.5343 9.99821 45.5343 9.33155C45.5343 8.71155 45.421 8.25655 45.1943 7.96655C44.971 7.67321 44.651 7.52655 44.2343 7.52655C43.9443 7.52655 43.691 7.59321 43.4743 7.72655C43.261 7.85988 43.0626 8.04821 42.8793 8.29155V10.7415ZM42.8793 7.62655C43.0926 7.37988 43.3326 7.18321 43.5993 7.03655C43.8693 6.88988 44.1793 6.81655 44.5293 6.81655C44.826 6.81655 45.0926 6.87321 45.3293 6.98655C45.5693 7.09988 45.7726 7.26488 45.9393 7.48155C46.106 7.69488 46.2326 7.95488 46.3193 8.26155C46.4093 8.56821 46.4543 8.91321 46.4543 9.29655C46.4543 9.70655 46.4043 10.0799 46.3043 10.4165C46.2043 10.7532 46.0593 11.0415 45.8693 11.2815C45.6826 11.5182 45.4543 11.7032 45.1843 11.8365C44.9143 11.9665 44.611 12.0315 44.2743 12.0315C43.941 12.0315 43.6593 11.9699 43.4293 11.8465C43.2026 11.7199 43.0043 11.5415 42.8343 11.3115L42.7893 11.7715C42.7626 11.8982 42.686 11.9615 42.5593 11.9615H41.9843V4.59655H42.8793V7.62655ZM51.823 6.89655L48.998 13.4565C48.968 13.5232 48.9297 13.5765 48.883 13.6165C48.8397 13.6565 48.7714 13.6765 48.678 13.6765H48.018L48.943 11.6665L46.853 6.89655H47.623C47.6997 6.89655 47.7597 6.91655 47.803 6.95655C47.8497 6.99321 47.8814 7.03488 47.898 7.08155L49.253 10.2715C49.3064 10.4115 49.3514 10.5582 49.388 10.7115C49.4347 10.5549 49.4847 10.4065 49.538 10.2665L50.853 7.08155C50.873 7.02821 50.9064 6.98488 50.953 6.95155C51.003 6.91488 51.058 6.89655 51.118 6.89655H51.823Z" fill="#858588"/>
<g clip-path="url(#clip0_19263_31413)">
<path d="M73.9902 2.02584L71.157 13.4269C70.7266 15.1923 69.3357 15.458 68.0199 15.458C66.7042 15.458 65.3133 15.188 64.8576 13.4269L62.0244 2.02584C62.0244 2.0013 61.999 1.97676 61.999 1.92768C62.0012 1.88537 62.0122 1.84393 62.0314 1.80589C62.0506 1.76785 62.0777 1.73401 62.1109 1.70644C62.144 1.67888 62.1827 1.65816 62.2244 1.64556C62.2661 1.63297 62.31 1.62875 62.3535 1.63317H64.9842C65.0765 1.63309 65.1658 1.66532 65.2355 1.72394C65.3053 1.78256 65.3509 1.86362 65.364 1.95222L67.7414 12.5688C67.7921 12.7651 67.8427 12.8388 68.0199 12.8388C68.1972 12.8388 68.2478 12.7651 68.2985 12.5688L70.6759 1.95222C70.6866 1.867 70.728 1.7882 70.7929 1.7298C70.8578 1.67139 70.9419 1.63715 71.0304 1.63317H73.6864C73.889 1.63317 74.0155 1.73134 74.0155 1.92768C74.0155 1.95222 73.9902 1.97676 73.9902 2.02584Z" fill="#B8B8BC"/>
<path d="M84.817 4.23239H81.7306V14.9446C81.7282 15.0415 81.6874 15.1338 81.6167 15.2023C81.546 15.2708 81.4508 15.3104 81.3508 15.3127H78.8695C78.7695 15.3104 78.6743 15.2708 78.6036 15.2023C78.5329 15.1338 78.4921 15.0415 78.4897 14.9446V4.23239H75.4032C75.3059 4.23559 75.2112 4.2012 75.14 4.13678C75.0688 4.07235 75.0269 3.98317 75.0234 3.8888V2.00075C75.0269 1.90639 75.0688 1.8172 75.14 1.75278C75.2112 1.68836 75.3059 1.65397 75.4032 1.65716H84.8136C84.9136 1.65328 85.0114 1.68675 85.0868 1.75067C85.1621 1.81459 85.2094 1.9041 85.2187 2.00075V3.8888C85.2094 3.98485 85.1627 4.07386 85.088 4.1377C85.0134 4.20154 84.9165 4.2354 84.817 4.23239Z" fill="#B8B8BC"/>
<path d="M94.8059 15.2169C93.5844 15.4014 92.3487 15.4835 91.1127 15.4623C88.6593 15.4623 86.5088 14.8496 86.5088 11.5144V5.40938C86.5088 2.0505 88.6846 1.4615 91.1362 1.4615C92.3636 1.43993 93.5906 1.52204 94.8033 1.70691C95.0818 1.756 95.1831 1.82963 95.1831 2.07505V3.7913C95.1806 3.88819 95.1398 3.98046 95.0691 4.049C94.9984 4.11753 94.9032 4.15707 94.8033 4.15943H90.9642C90.0789 4.15943 89.7498 4.45394 89.7498 5.41024V7.0774H94.6575C94.7574 7.07976 94.8526 7.11931 94.9233 7.18784C94.994 7.25637 95.0348 7.34865 95.0373 7.44554V9.18633C95.0348 9.28322 94.994 9.37549 94.9233 9.44403C94.8526 9.51256 94.7574 9.5521 94.6575 9.55446H89.7498V11.5161C89.7498 12.4724 90.0789 12.7669 90.9642 12.7669H94.8059C94.9058 12.7693 95.001 12.8088 95.0717 12.8774C95.1424 12.9459 95.1832 13.0382 95.1857 13.1351V14.8513C95.1883 15.0697 95.087 15.1924 94.8059 15.2169Z" fill="#B8B8BC"/>
<path d="M108.746 15.2906H105.735C105.633 15.2972 105.531 15.2753 105.442 15.2274C105.352 15.1796 105.279 15.1078 105.23 15.0206L102.751 11.1463L100.526 14.947C100.399 15.1679 100.247 15.3151 100.045 15.3151H97.2374C97.2019 15.3197 97.1658 15.3167 97.1315 15.3064C97.0973 15.296 97.0658 15.2785 97.0393 15.2551C97.0128 15.2318 96.9918 15.2031 96.978 15.171C96.9641 15.139 96.9576 15.1044 96.9589 15.0697C96.9598 15.0242 96.9778 14.9806 97.0095 14.947L100.981 8.302L96.9842 2.00061C96.9638 1.96291 96.955 1.92031 96.9589 1.8779C96.9648 1.81049 96.9968 1.74774 97.0485 1.70223C97.1001 1.65672 97.1676 1.6318 97.2374 1.63248H100.299C100.501 1.63248 100.653 1.82881 100.779 1.97606L103.131 5.69969L105.256 1.97606C105.3 1.88448 105.367 1.80506 105.451 1.74504C105.535 1.68502 105.633 1.64632 105.736 1.63248H108.544C108.579 1.6303 108.614 1.63498 108.647 1.64623C108.681 1.65749 108.711 1.67509 108.737 1.69798C108.763 1.72088 108.784 1.7486 108.799 1.77951C108.813 1.81042 108.822 1.84388 108.823 1.8779C108.823 1.92698 108.797 1.95152 108.797 2.00061L104.876 8.49834L108.949 14.947C108.99 15.0046 109.007 15.0741 109 15.1433C109 15.217 108.899 15.2906 108.746 15.2906Z" fill="#B8B8BC"/>
</g>
<defs>
<clipPath id="clip0_19263_31413">
<rect width="47" height="14" fill="white" transform="translate(62 1.46155)"/>
</clipPath>
</defs>
</svg>
