<svg width="66" height="66" viewBox="0 0 66 66" fill="none" xmlns="http://www.w3.org/2000/svg">
<g clip-path="url(#clip0_19263_31461)">
<path d="M27.8438 38.1562L41.25 24.75" stroke="#282828" stroke-width="2.5" stroke-linecap="round" stroke-linejoin="round"/>
<path d="M57.67 10.8745C57.7694 10.5217 57.773 10.1488 57.6804 9.79409C57.5878 9.43943 57.4024 9.11584 57.1432 8.85666C56.884 8.59747 56.5604 8.41203 56.2058 8.31945C55.8511 8.22686 55.4782 8.23046 55.1254 8.32988L5.62535 23.3397C5.22122 23.4538 4.86153 23.6885 4.59437 24.0124C4.3272 24.3364 4.16527 24.7342 4.13024 25.1526C4.09521 25.5711 4.18873 25.9902 4.39831 26.3541C4.60789 26.718 4.92355 27.0092 5.30308 27.1889L27.8436 38.1562L38.811 60.6942C38.9906 61.0737 39.2819 61.3894 39.6457 61.5989C40.0096 61.8085 40.4288 61.9021 40.8472 61.867C41.2657 61.832 41.6635 61.6701 41.9874 61.4029C42.3114 61.1357 42.5461 60.776 42.6601 60.3719L57.67 10.8745Z" stroke="#282828" stroke-width="2.5" stroke-linecap="round" stroke-linejoin="round"/>
</g>
<defs>
<clipPath id="clip0_19263_31461">
<rect width="66" height="66" fill="white"/>
</clipPath>
</defs>
</svg>
