<svg width="30" height="30" viewBox="0 0 30 30" fill="none" xmlns="http://www.w3.org/2000/svg">
<rect width="30" height="30" rx="15" fill="#858588"/>
<path d="M18.749 6.66663H15.9539V18.0193C15.9539 19.372 14.8788 20.4831 13.541 20.4831C12.2032 20.4831 11.1281 19.372 11.1281 18.0193C11.1281 16.6908 12.1793 15.6038 13.4693 15.5555V12.7053C10.6264 12.7536 8.33301 15.0966 8.33301 18.0193C8.33301 20.9662 10.6742 23.3333 13.5649 23.3333C16.4555 23.3333 18.7967 20.942 18.7967 18.0193V12.198C19.8479 12.971 21.1379 13.4299 22.4997 13.4541V10.6038C20.3974 10.5314 18.749 8.79223 18.749 6.66663Z" fill="white"/>
</svg>
