<svg width="40" height="40" viewBox="0 0 40 40" fill="none" xmlns="http://www.w3.org/2000/svg">
<path d="M30.8337 29.9998C30.8337 31.8408 29.3413 33.3332 27.5003 33.3332C25.6594 33.3332 24.167 31.8408 24.167 29.9998M30.8337 29.9998C30.8337 28.1589 29.3413 26.6665 27.5003 26.6665C25.6594 26.6665 24.167 28.1589 24.167 29.9998M30.8337 29.9998H35.8337M24.167 29.9998H22.5003M14.167 29.9998C14.167 31.8408 12.6746 33.3332 10.8337 33.3332C8.99271 33.3332 7.50033 31.8408 7.50033 29.9998M14.167 29.9998C14.167 28.1589 12.6746 26.6665 10.8337 26.6665C8.99271 26.6665 7.50033 28.1589 7.50033 29.9998M14.167 29.9998H22.5003M7.50033 29.9998C5.65938 29.9998 4.16699 28.5075 4.16699 26.6665V11.9998C4.16699 10.133 4.16699 9.19957 4.5303 8.48654C4.84988 7.85933 5.35982 7.34939 5.98702 7.02982C6.70006 6.6665 7.63348 6.6665 9.50033 6.6665H17.167C19.0338 6.6665 19.9673 6.6665 20.6803 7.02982C21.3075 7.34939 21.8174 7.85933 22.137 8.48654C22.5003 9.19957 22.5003 10.133 22.5003 11.9998V29.9998M22.5003 29.9998V13.3332H29.167L34.167 19.9998M34.167 19.9998V29.9998M34.167 19.9998H22.5003" stroke="white" stroke-width="1.5" stroke-linecap="round" stroke-linejoin="round"/>
</svg>
