<svg width="20" height="20" viewBox="0 0 20 20" fill="none" xmlns="http://www.w3.org/2000/svg">
<path fill-rule="evenodd" clip-rule="evenodd" d="M12.3742 4.71501C11.9935 4.71485 11.6175 4.79922 11.2733 4.96203C10.9292 5.12483 10.6255 5.36201 10.3842 5.65644C10.1428 5.95088 9.96987 6.29522 9.87779 6.66462C9.7857 7.03401 9.77677 7.41925 9.85166 7.79251C9.87744 7.92184 9.87216 8.05545 9.83625 8.18234C9.80034 8.30924 9.73483 8.42579 9.6451 8.52244C9.55537 8.61908 9.44399 8.69305 9.3201 8.73826C9.19622 8.78348 9.06337 8.79864 8.93249 8.78251C7.1406 8.5624 5.45143 7.82581 4.07082 6.66251C4.09666 7.16418 4.27082 7.69751 4.64832 8.25585L5.21416 9.09251L4.28499 9.48835L4.10582 9.56501C4.23916 9.71751 4.39916 9.87335 4.57832 10.0275C4.81784 10.2325 5.07122 10.4207 5.33666 10.5908L5.34582 10.5967H5.34666L6.63666 11.3792L5.28666 12.0542C5.21999 12.0875 5.15332 12.1175 5.08666 12.1442C5.37694 12.3854 5.69673 12.5887 6.03832 12.7492L7.19666 13.2967L6.22666 14.1333C5.69749 14.59 5.16499 14.9308 4.47416 15.1108C5.53369 15.6752 6.71619 15.9692 7.91666 15.9667C11.9217 15.9667 15.1467 12.7708 15.1467 8.85501V8.42168L15.5008 8.17251C16.0542 7.78418 16.445 7.25918 16.725 6.65835H14.925L14.6983 6.18335C14.4896 5.7439 14.1605 5.37268 13.7493 5.11277C13.338 4.85287 12.8615 4.71494 12.375 4.71501H12.3742ZM2.97416 10.7983C2.89552 10.8884 2.83718 10.9943 2.8031 11.1089C2.76902 11.2235 2.76 11.3441 2.77666 11.4625C2.87082 12.13 3.26999 12.705 3.71166 13.1442C3.83166 13.2633 3.95999 13.3775 4.09499 13.4867L4.03249 13.5033C3.63166 13.6033 3.09082 13.6242 2.18999 13.5367C2.01987 13.52 1.84874 13.556 1.69978 13.6399C1.55083 13.7237 1.43127 13.8514 1.35731 14.0055C1.28335 14.1596 1.25857 14.3327 1.28633 14.5014C1.31409 14.67 1.39304 14.8261 1.51249 14.9483C2.34647 15.8008 3.34273 16.4775 4.44251 16.9387C5.54228 17.3998 6.72328 17.636 7.91582 17.6333C12.6767 17.6333 16.5817 13.9367 16.8025 9.27168C17.8775 8.36918 18.415 7.14668 18.705 6.03585C18.7372 5.91256 18.7408 5.78351 18.7153 5.65864C18.6899 5.53377 18.6361 5.4164 18.5582 5.31555C18.4803 5.2147 18.3803 5.13306 18.2659 5.07692C18.1515 5.02077 18.0258 4.99161 17.8983 4.99168H15.9375C15.4579 4.24695 14.7569 3.67121 13.9332 3.34537C13.1095 3.01953 12.2044 2.95997 11.3451 3.17505C10.4858 3.39013 9.71548 3.86904 9.14239 4.54449C8.5693 5.21995 8.22224 6.05798 8.14999 6.94085C6.61387 6.54097 5.23943 5.67485 4.21582 4.46168C4.12517 4.3545 4.00891 4.27195 3.87784 4.22171C3.74676 4.17146 3.60512 4.15514 3.46605 4.17425C3.32698 4.19337 3.195 4.24731 3.08234 4.33107C2.96969 4.41482 2.88002 4.52568 2.82166 4.65335C2.31666 5.75501 2.21999 7.02501 2.78332 8.31668L2.58832 8.40001C2.40172 8.47953 2.25052 8.62437 2.16308 8.80739C2.07563 8.99042 2.05794 9.19905 2.11332 9.39418C2.26832 9.93751 2.61666 10.4175 2.97332 10.7983H2.97416Z" fill="white"/>
</svg>
