<svg width="20" height="20" viewBox="0 0 20 20" fill="none" xmlns="http://www.w3.org/2000/svg">
<path fill-rule="evenodd" clip-rule="evenodd" d="M2.91669 10C2.91669 8.59905 3.33212 7.22956 4.11045 6.06471C4.88877 4.89986 5.99504 3.99197 7.28935 3.45585C8.58366 2.91973 10.0079 2.77946 11.3819 3.05277C12.7559 3.32608 14.0181 4.00071 15.0087 4.99133C15.9993 5.98195 16.6739 7.24408 16.9473 8.61811C17.2206 9.99214 17.0803 11.4164 16.5442 12.7107C16.008 14.005 15.1002 15.1112 13.9353 15.8896C12.7705 16.6679 11.401 17.0833 10 17.0833C8.65989 17.0857 7.34688 16.7059 6.21502 15.9883C6.11434 15.9246 6.00117 15.8833 5.88315 15.867C5.76513 15.8508 5.645 15.86 5.53086 15.8942L3.13086 16.61L4.03502 14.4958C4.08758 14.3728 4.10971 14.2388 4.09956 14.1054C4.08941 13.9719 4.04726 13.8429 3.97669 13.7292C3.28163 12.6097 2.9144 11.3177 2.91669 10ZM10 1.25C5.16752 1.25 1.25002 5.1675 1.25002 10C1.25002 11.5317 1.64419 12.9733 2.33752 14.2275L0.900022 17.5892C0.837805 17.7348 0.818367 17.8951 0.843985 18.0514C0.869602 18.2077 0.939215 18.3534 1.04467 18.4715C1.15012 18.5897 1.28706 18.6753 1.43943 18.7184C1.5918 18.7615 1.7533 18.7604 1.90502 18.715L5.65502 17.5967C6.97754 18.3545 8.47574 18.7522 10 18.75C14.8325 18.75 18.75 14.8325 18.75 10C18.75 5.1675 14.8325 1.25 10 1.25ZM11.9109 11.8183L10.815 12.59C10.2112 12.2426 9.65685 11.8158 9.16669 11.3208C8.64047 10.7953 8.18547 10.2031 7.81336 9.55917L8.50919 8.96833C8.65418 8.84532 8.75274 8.67642 8.78852 8.48967C8.82429 8.30292 8.79512 8.10955 8.70585 7.94167L7.81919 6.275C7.76018 6.16431 7.67695 6.06837 7.57571 5.99433C7.47446 5.9203 7.3578 5.87007 7.23443 5.8474C7.11107 5.82473 6.98417 5.8302 6.86322 5.8634C6.74226 5.89661 6.63036 5.95669 6.53586 6.03917L6.27252 6.26833C5.64002 6.82 5.26586 7.72667 5.57586 8.645C6.07461 10.0976 6.89994 11.4164 7.98836 12.5C9.49919 14.0108 11.0342 14.6058 11.9325 14.8375C12.6559 15.0233 13.34 14.7742 13.8225 14.3808L14.315 13.9792C14.4189 13.8945 14.5007 13.786 14.5537 13.663C14.6067 13.5399 14.6293 13.4059 14.6195 13.2723C14.6097 13.1387 14.5678 13.0094 14.4974 12.8954C14.427 12.7814 14.3301 12.6861 14.215 12.6175L12.8167 11.7842C12.6784 11.7017 12.5192 11.661 12.3583 11.667C12.1974 11.6731 12.0417 11.7257 11.91 11.8183H11.9109Z" fill="white"/>
</svg>
