<svg width="30" height="30" viewBox="0 0 30 30" fill="none" xmlns="http://www.w3.org/2000/svg">
<rect width="30" height="30" rx="15" fill="#858588"/>
<path d="M15 9.16699C15.053 9.167 20.2239 9.1683 21.5215 9.52344C22.2353 9.71573 22.798 10.2793 22.9902 10.9932C23.3471 12.2976 23.333 15.0156 23.333 15.0156C23.333 15.0421 23.3318 17.7265 22.9902 19.0244C22.7981 19.7382 22.2352 20.3008 21.5215 20.4932C20.2239 20.8346 15.053 20.8369 15 20.8369C15 20.8369 9.79709 20.8364 8.47852 20.4795C7.76458 20.2873 7.201 19.7247 7.00879 19.0107C6.66748 17.7274 6.66603 15.032 6.66602 15.002C6.66602 15.002 6.66568 12.2977 7.00879 10.9932C7.201 10.2792 7.77831 9.70198 8.47852 9.50977C9.78355 9.16664 15 9.16699 15 9.16699ZM13.3379 17.5L17.6768 15.002L13.3379 12.5029V17.5Z" fill="white"/>
</svg>
